<svg xmlns="http://www.w3.org/2000/svg" width="1900" height="1010" viewBox="0 0 1900 1010">
<title>01 · Visão geral do quarto (computador, 1440 × 900)</title>
<rect x="0" y="0" width="1900" height="1010" rx="0" fill="#f1f1ee" stroke="none" stroke-width="1"/>
<text x="40" y="34" font-family="Inter, 'Segoe UI', Arial, sans-serif" font-size="12" font-weight="600" fill="#76766f" text-anchor="start">Portfólio 3D · Wireframe</text>
<text x="40" y="56" font-family="Inter, 'Segoe UI', Arial, sans-serif" font-size="18" font-weight="700" fill="#262624" text-anchor="start">01 · Visão geral do quarto (computador, 1440 × 900)</text>
<text x="1520" y="56" font-family="Inter, 'Segoe UI', Arial, sans-serif" font-size="14" font-weight="700" fill="#76766f" text-anchor="start">Anotações</text>
<g transform="translate(40 70)">
<clipPath id="frame"><rect width="1440" height="900" rx="12"/></clipPath>
<g clip-path="url(#frame)">
<rect x="0" y="0" width="1440" height="900" rx="0" fill="#ffffff" stroke="none" stroke-width="1"/>
<rect x="0" y="0" width="1440" height="900" rx="0" fill="#f6f6f3" stroke="none" stroke-width="1"/><polygon points="1123.9,607.6 1123.9,590.0 720.0,823.2 720.0,840.8" fill="#dcdcd8" stroke="#a5a5a0" stroke-width="1" stroke-linejoin="round"/><polygon points="316.1,607.6 720.0,840.8 720.0,823.2 316.1,590.0" fill="#c9c9c4" stroke="#a5a5a0" stroke-width="1" stroke-linejoin="round"/><polygon points="720.0,356.8 1123.9,590.0 720.0,823.2 316.1,590.0" fill="#f4f4f1" stroke="#a5a5a0" stroke-width="1" stroke-linejoin="round"/><polygon points="731.4,363.4 731.4,117.0 327.5,350.2 327.5,596.6" fill="#f7f7f5" stroke="#a5a5a0" stroke-width="1" stroke-linejoin="round"/><polygon points="316.1,590.0 327.5,596.6 327.5,350.2 316.1,343.6" fill="#dcdcd8" stroke="#a5a5a0" stroke-width="1" stroke-linejoin="round"/><polygon points="720.0,110.4 731.4,117.0 327.5,350.2 316.1,343.6" fill="#c9c9c4" stroke="#a5a5a0" stroke-width="1" stroke-linejoin="round"/><polygon points="1123.9,590.0 1123.9,343.6 1112.5,350.2 1112.5,596.6" fill="#dcdcd8" stroke="#a5a5a0" stroke-width="1" stroke-linejoin="round"/><polygon points="720.0,370.0 1112.5,596.6 1112.5,350.2 720.0,123.6" fill="#ebebe8" stroke="#a5a5a0" stroke-width="1" stroke-linejoin="round"/><polygon points="731.4,117.0 1123.9,343.6 1112.5,350.2 720.0,123.6" fill="#c9c9c4" stroke="#a5a5a0" stroke-width="1" stroke-linejoin="round"/><polygon points="767.6,531.3 942.9,632.5 796.2,717.2 620.9,616.0" fill="#ebebe8" stroke="#a5a5a0" stroke-width="1" stroke-linejoin="round"/><polygon points="815.3,337.0 922.0,398.6 922.0,297.4 815.3,235.8" fill="#ffffff" stroke="#55554f" stroke-width="1.5" stroke-linejoin="round"/><line x1="870.5108" y1="346.9" x2="920.046" y2="375.5" stroke="#a5a5a0" stroke-width="1"/><line x1="870.5108" y1="337.21999999999997" x2="920.046" y2="365.82" stroke="#a5a5a0" stroke-width="1"/><line x1="870.5108" y1="327.53999999999996" x2="920.046" y2="356.14" stroke="#a5a5a0" stroke-width="1"/><line x1="870.5108" y1="317.85999999999996" x2="920.046" y2="346.46" stroke="#a5a5a0" stroke-width="1"/><line x1="870.5108" y1="308.17999999999995" x2="920.046" y2="336.78" stroke="#a5a5a0" stroke-width="1"/><line x1="870.5108" y1="298.49999999999994" x2="920.046" y2="327.09999999999997" stroke="#a5a5a0" stroke-width="1"/><line x1="870.5108" y1="288.81999999999994" x2="920.046" y2="317.41999999999996" stroke="#a5a5a0" stroke-width="1"/><line x1="870.5108" y1="279.13999999999993" x2="920.046" y2="307.73999999999995" stroke="#a5a5a0" stroke-width="1"/><line x1="868.6056" y1="367.8" x2="868.6056" y2="266.6" stroke="#55554f" stroke-width="1"/><polygon points="932.2,366.3 959.7,382.1 959.7,338.1 932.2,322.3" fill="#c9c9c4" stroke="#55554f" stroke-width="1" stroke-linejoin="round"/><polygon points="1004.6,383.0 1042.7,405.0 1042.7,345.1 1004.6,323.1" fill="#c9c9c4" stroke="#55554f" stroke-width="1" stroke-linejoin="round"/><polygon points="1052.3,410.5 1090.4,432.5 1090.4,372.6 1052.3,350.6" fill="#c9c9c4" stroke="#55554f" stroke-width="1" stroke-linejoin="round"/><polygon points="1004.6,446.8 1042.7,468.8 1042.7,408.9 1004.6,386.9" fill="#c9c9c4" stroke="#55554f" stroke-width="1" stroke-linejoin="round"/><polygon points="1052.3,474.3 1090.4,496.3 1090.4,436.4 1052.3,414.4" fill="#c9c9c4" stroke="#55554f" stroke-width="1" stroke-linejoin="round"/><polygon points="719.6,374.2 563.4,464.4 563.4,248.8 719.6,158.6" fill="#ececea" stroke="#a5a5a0" stroke-width="1" stroke-linejoin="round"/><polygon points="695.2,250.1 596.2,307.3 596.2,241.3 695.2,184.1" fill="#55554f" stroke="none" stroke-width="1" stroke-linejoin="round"/><line x1="683.8012" y1="189.38000000000002" x2="611.4036" y2="231.17999999999998" stroke="#55554f" stroke-width="3"/><polygon points="532.1,481.5 465.5,520.0 465.5,335.2 532.1,296.7" fill="#dcdcd8" stroke="#55554f" stroke-width="1.5" stroke-linejoin="round"/><circle cx="476.13439999999997" cy="427.20000000000005" r="2.6399999999999997" fill="#55554f" stroke="none" stroke-width="1"/><polygon points="442.2,530.8 341.2,589.1 341.2,380.1 442.2,321.8" fill="#dcdcd8" stroke="#a5a5a0" stroke-width="1" stroke-linejoin="round"/><polygon points="472.3,546.4 472.3,337.4 469.7,339.0 469.7,548.0" fill="#ffffff" stroke="#a5a5a0" stroke-width="1" stroke-linejoin="round"/><polygon points="440.7,531.3 469.7,548.0 469.7,339.0 440.7,322.3" fill="#ebebe8" stroke="#a5a5a0" stroke-width="1" stroke-linejoin="round"/><polygon points="443.4,320.7 472.3,337.4 469.7,339.0 440.7,322.3" fill="#ffffff" stroke="#a5a5a0" stroke-width="1" stroke-linejoin="round"/><polygon points="469.7,537.0 469.7,533.9 371.0,590.9 371.0,594.0" fill="#ebebe8" stroke="#a5a5a0" stroke-width="1" stroke-linejoin="round"/><polygon points="342.0,577.2 371.0,594.0 371.0,590.9 342.0,574.2" fill="#ebebe8" stroke="#a5a5a0" stroke-width="1" stroke-linejoin="round"/><polygon points="440.7,517.2 469.7,533.9 371.0,590.9 342.0,574.2" fill="#ffffff" stroke="#a5a5a0" stroke-width="1" stroke-linejoin="round"/><polygon points="469.7,477.6 469.7,474.5 371.0,531.5 371.0,534.6" fill="#ebebe8" stroke="#a5a5a0" stroke-width="1" stroke-linejoin="round"/><polygon points="342.0,517.8 371.0,534.6 371.0,531.5 342.0,514.8" fill="#ebebe8" stroke="#a5a5a0" stroke-width="1" stroke-linejoin="round"/><polygon points="440.7,457.8 469.7,474.5 371.0,531.5 342.0,514.8" fill="#ffffff" stroke="#a5a5a0" stroke-width="1" stroke-linejoin="round"/><polygon points="469.7,422.6 469.7,419.5 371.0,476.5 371.0,479.6" fill="#ebebe8" stroke="#a5a5a0" stroke-width="1" stroke-linejoin="round"/><polygon points="342.0,462.8 371.0,479.6 371.0,476.5 342.0,459.8" fill="#ebebe8" stroke="#a5a5a0" stroke-width="1" stroke-linejoin="round"/><polygon points="440.7,402.8 469.7,419.5 371.0,476.5 342.0,459.8" fill="#ffffff" stroke="#a5a5a0" stroke-width="1" stroke-linejoin="round"/><polygon points="469.7,367.6 469.7,364.5 371.0,421.5 371.0,424.6" fill="#ebebe8" stroke="#a5a5a0" stroke-width="1" stroke-linejoin="round"/><polygon points="342.0,407.8 371.0,424.6 371.0,421.5 342.0,404.8" fill="#ebebe8" stroke="#a5a5a0" stroke-width="1" stroke-linejoin="round"/><polygon points="440.7,347.8 469.7,364.5 371.0,421.5 342.0,404.8" fill="#ffffff" stroke="#a5a5a0" stroke-width="1" stroke-linejoin="round"/><polygon points="472.3,338.8 472.3,335.7 368.3,395.7 368.3,398.8" fill="#ebebe8" stroke="#a5a5a0" stroke-width="1" stroke-linejoin="round"/><polygon points="339.3,382.1 368.3,398.8 368.3,395.7 339.3,379.0" fill="#ebebe8" stroke="#a5a5a0" stroke-width="1" stroke-linejoin="round"/><polygon points="443.4,319.0 472.3,335.7 368.3,395.7 339.3,379.0" fill="#ffffff" stroke="#a5a5a0" stroke-width="1" stroke-linejoin="round"/><text x="378.58815999999996" y="450.52000000000004" font-family="Inter, 'Segoe UI', Arial, sans-serif" font-size="42" font-weight="800" fill="#55554f" text-anchor="middle">&amp;</text><polygon points="427.4,482.2 399.9,498.0 399.9,459.3 427.4,443.5" fill="#ffffff" stroke="#55554f" stroke-width="2" stroke-linejoin="round"/><circle cx="414.40592000000004" cy="467.23999999999995" r="5.720000000000001" fill="#c9c9c4" stroke="none" stroke-width="1"/><circle cx="443.746" cy="520.7" r="8.8" fill="#dcdcd8" stroke="#a5a5a0" stroke-width="1"/><circle cx="418.9784" cy="535" r="8.8" fill="#dcdcd8" stroke="#a5a5a0" stroke-width="1"/><circle cx="394.2108" cy="549.3000000000001" r="8.8" fill="#dcdcd8" stroke="#a5a5a0" stroke-width="1"/><circle cx="371.3484" cy="562.5" r="8.8" fill="#dcdcd8" stroke="#a5a5a0" stroke-width="1"/><polygon points="371.0,605.0 371.0,396.0 368.3,397.5 368.3,606.5" fill="#ffffff" stroke="#a5a5a0" stroke-width="1" stroke-linejoin="round"/><polygon points="339.3,589.8 368.3,606.5 368.3,397.5 339.3,380.8" fill="#ebebe8" stroke="#a5a5a0" stroke-width="1" stroke-linejoin="round"/><polygon points="342.0,379.2 371.0,396.0 368.3,397.5 339.3,380.8" fill="#ffffff" stroke="#a5a5a0" stroke-width="1" stroke-linejoin="round"/><polygon points="763.8,415.1 763.8,350.9 760.8,352.6 760.8,416.9" fill="#dcdcd8" stroke="#a5a5a0" stroke-width="1" stroke-linejoin="round"/><polygon points="705.1,384.7 760.8,416.9 760.8,352.6 705.1,320.5" fill="#c9c9c4" stroke="#a5a5a0" stroke-width="1" stroke-linejoin="round"/><polygon points="708.2,318.7 763.8,350.9 760.8,352.6 705.1,320.5" fill="#ebebe8" stroke="#a5a5a0" stroke-width="1" stroke-linejoin="round"/><polygon points="765.7,352.0 765.7,347.6 647.6,415.8 647.6,420.2" fill="#c9c9c4" stroke="#a5a5a0" stroke-width="1" stroke-linejoin="round"/><polygon points="590.1,386.9 647.6,420.2 647.6,415.8 590.1,382.5" fill="#c9c9c4" stroke="#a5a5a0" stroke-width="1" stroke-linejoin="round"/><polygon points="708.2,314.3 765.7,347.6 647.6,415.8 590.1,382.5" fill="#ebebe8" stroke="#a5a5a0" stroke-width="1" stroke-linejoin="round"/><polygon points="674.3,495.4 674.3,426.8 632.4,451.0 632.4,519.6" fill="#dcdcd8" stroke="#a5a5a0" stroke-width="1" stroke-linejoin="round"/><polygon points="552.0,473.2 632.4,519.6 632.4,451.0 552.0,404.5" fill="#c9c9c4" stroke="#a5a5a0" stroke-width="1" stroke-linejoin="round"/><polygon points="593.9,380.3 674.3,426.8 632.4,451.0 552.0,404.5" fill="#ebebe8" stroke="#a5a5a0" stroke-width="1" stroke-linejoin="round"/><line x1="674.2752" y1="477.79999999999995" x2="632.3608" y2="502" stroke="#a5a5a0" stroke-width="1"/><line x1="674.2752" y1="461.08" x2="632.3608" y2="485.28000000000003" stroke="#a5a5a0" stroke-width="1"/><line x1="674.2752" y1="444.35999999999996" x2="632.3608" y2="468.56" stroke="#a5a5a0" stroke-width="1"/><polygon points="645.3,420.6 645.3,342.3 621.7,355.9 621.7,434.2" fill="#55554f" stroke="#a5a5a0" stroke-width="1" stroke-linejoin="round"/><polygon points="569.9,404.3 621.7,434.2 621.7,355.9 569.9,326.0" fill="#3d3d3a" stroke="#a5a5a0" stroke-width="1" stroke-linejoin="round"/><polygon points="593.5,312.4 645.3,342.3 621.7,355.9 569.9,326.0" fill="#55554f" stroke="#a5a5a0" stroke-width="1" stroke-linejoin="round"/><polygon points="707.0,322.9 707.0,265.7 619.4,316.3 619.4,373.5" fill="#55554f" stroke="#a5a5a0" stroke-width="1" stroke-linejoin="round"/><polygon points="616.4,371.8 619.4,373.5 619.4,316.3 616.4,314.6" fill="#3d3d3a" stroke="#a5a5a0" stroke-width="1" stroke-linejoin="round"/><polygon points="704.0,264.0 707.0,265.7 619.4,316.3 616.4,314.6" fill="#55554f" stroke="#a5a5a0" stroke-width="1" stroke-linejoin="round"/><polygon points="703.6,320.9 623.6,367.1 623.6,318.7 703.6,272.5" fill="#6c6c66" stroke="none" stroke-width="1" stroke-linejoin="round"/><polygon points="716.6,362.3 716.6,359.7 668.9,387.2 668.9,389.8" fill="#dcdcd8" stroke="#a5a5a0" stroke-width="1" stroke-linejoin="round"/><polygon points="650.7,379.2 668.9,389.8 668.9,387.2 650.7,376.6" fill="#dcdcd8" stroke="#a5a5a0" stroke-width="1" stroke-linejoin="round"/><polygon points="698.3,349.1 716.6,359.7 668.9,387.2 650.7,376.6" fill="#ffffff" stroke="#a5a5a0" stroke-width="1" stroke-linejoin="round"/><polygon points="769.5,432.5 769.5,426.3 735.2,446.1 735.2,452.3" fill="#c9c9c4" stroke="#a5a5a0" stroke-width="1" stroke-linejoin="round"/><polygon points="700.9,432.5 735.2,452.3 735.2,446.1 700.9,426.3" fill="#c9c9c4" stroke="#a5a5a0" stroke-width="1" stroke-linejoin="round"/><polygon points="735.2,406.5 769.5,426.3 735.2,446.1 700.9,426.3" fill="#dcdcd8" stroke="#a5a5a0" stroke-width="1" stroke-linejoin="round"/><polygon points="773.3,428.5 773.3,363.4 739.1,383.2 739.1,448.3" fill="#c9c9c4" stroke="#a5a5a0" stroke-width="1" stroke-linejoin="round"/><polygon points="733.3,445.0 739.1,448.3 739.1,383.2 733.3,379.9" fill="#c9c9c4" stroke="#a5a5a0" stroke-width="1" stroke-linejoin="round"/><polygon points="767.6,360.1 773.3,363.4 739.1,383.2 733.3,379.9" fill="#dcdcd8" stroke="#a5a5a0" stroke-width="1" stroke-linejoin="round"/><line x1="735.2416" y1="469" x2="735.2416" y2="432.47999999999996" stroke="#55554f" stroke-width="2.6399999999999997"/><polygon points="1098.2,589.5 1098.2,569.7 985.8,634.6 985.8,654.4" fill="#55554f" stroke="#a5a5a0" stroke-width="1" stroke-linejoin="round"/><polygon points="757.2,522.4 985.8,654.4 985.8,634.6 757.2,502.6" fill="#55554f" stroke="#a5a5a0" stroke-width="1" stroke-linejoin="round"/><polygon points="869.6,437.7 1098.2,569.7 985.8,634.6 757.2,502.6" fill="#dcdcd8" stroke="#a5a5a0" stroke-width="1" stroke-linejoin="round"/><polygon points="1062.9,548.2 1062.9,524.0 946.7,591.1 946.7,615.3" fill="#dcdcd8" stroke="#a5a5a0" stroke-width="1" stroke-linejoin="round"/><polygon points="754.3,504.2 946.7,615.3 946.7,591.1 754.3,480.0" fill="#dcdcd8" stroke="#a5a5a0" stroke-width="1" stroke-linejoin="round"/><polygon points="870.5,412.9 1062.9,524.0 946.7,591.1 754.3,480.0" fill="#ebebe8" stroke="#a5a5a0" stroke-width="1" stroke-linejoin="round"/><polygon points="1082.4,557.2 1082.4,544.0 994.7,594.6 994.7,607.8" fill="#ebebe8" stroke="#a5a5a0" stroke-width="1" stroke-linejoin="round"/><polygon points="962.0,588.9 994.7,607.8 994.7,594.6 962.0,575.7" fill="#ebebe8" stroke="#a5a5a0" stroke-width="1" stroke-linejoin="round"/><polygon points="1049.6,525.1 1082.4,544.0 994.7,594.6 962.0,575.7" fill="#ffffff" stroke="#a5a5a0" stroke-width="1" stroke-linejoin="round"/><polygon points="939.1,538.3 939.1,536.5 916.2,549.7 916.2,551.5" fill="#55554f" stroke="#a5a5a0" stroke-width="1" stroke-linejoin="round"/><polygon points="904.8,544.9 916.2,551.5 916.2,549.7 904.8,543.1" fill="#3d3d3a" stroke="#a5a5a0" stroke-width="1" stroke-linejoin="round"/><polygon points="927.7,529.9 939.1,536.5 916.2,549.7 904.8,543.1" fill="#55554f" stroke="#a5a5a0" stroke-width="1" stroke-linejoin="round"/><polygon points="1106.8,595.5 1106.8,494.3 996.3,558.1 996.3,659.3" fill="#6c6c66" stroke="#a5a5a0" stroke-width="1" stroke-linejoin="round"/><polygon points="986.7,653.8 996.3,659.3 996.3,558.1 986.7,552.6" fill="#6c6c66" stroke="#a5a5a0" stroke-width="1" stroke-linejoin="round"/><polygon points="1097.2,488.8 1106.8,494.3 996.3,558.1 986.7,552.6" fill="#c9c9c4" stroke="#a5a5a0" stroke-width="1" stroke-linejoin="round"/><polygon points="994.3,662.6 994.3,598.8 952.4,623.0 952.4,686.8" fill="#55554f" stroke="#a5a5a0" stroke-width="1" stroke-linejoin="round"/><polygon points="908.6,661.5 952.4,686.8 952.4,623.0 908.6,597.7" fill="#3d3d3a" stroke="#a5a5a0" stroke-width="1" stroke-linejoin="round"/><polygon points="950.5,573.5 994.3,598.8 952.4,623.0 908.6,597.7" fill="#55554f" stroke="#a5a5a0" stroke-width="1" stroke-linejoin="round"/><line x1="956.2447999999999" y1="592.2" x2="956.2447999999999" y2="563.6" stroke="#55554f" stroke-width="2.2"/><polygon points="962.7,566.5 962.7,555.5 953.6,560.7 953.6,571.7" fill="#c9c9c4" stroke="#a5a5a0" stroke-width="1" stroke-linejoin="round"/><polygon points="944.1,566.2 953.6,571.7 953.6,560.7 944.1,555.2" fill="#c9c9c4" stroke="#a5a5a0" stroke-width="1" stroke-linejoin="round"/><polygon points="953.2,550.0 962.7,555.5 953.6,560.7 944.1,555.2" fill="#dcdcd8" stroke="#a5a5a0" stroke-width="1" stroke-linejoin="round"/><polygon points="765.7,548.2 765.7,506.4 741.0,520.7 741.0,562.5" fill="#55554f" stroke="#a5a5a0" stroke-width="1" stroke-linejoin="round"/><polygon points="723.8,552.6 741.0,562.5 741.0,520.7 723.8,510.8" fill="#3d3d3a" stroke="#a5a5a0" stroke-width="1" stroke-linejoin="round"/><polygon points="748.6,496.5 765.7,506.4 741.0,520.7 723.8,510.8" fill="#55554f" stroke="#a5a5a0" stroke-width="1" stroke-linejoin="round"/><circle cx="824.7860000000001" cy="674.6999999999999" r="17.6" fill="#ffffff" stroke="#55554f" stroke-width="1.5"/><path d="M808.066 674.6999999999999q16.72 -13.2 33.44 0" fill="none" stroke="#a5a5a0"/><rect x="580.1120000000001" y="180.2" width="127.36000000000001" height="32" rx="16" fill="#ffffff" stroke="#a5a5a0" stroke-width="1"/><circle cx="595.1120000000001" cy="196.2" r="4" fill="#55554f" stroke="none" stroke-width="1"/><text x="606.1120000000001" y="200.88" font-family="Inter, 'Segoe UI', Arial, sans-serif" font-size="13" font-weight="600" fill="#262624" text-anchor="start">Experiências</text><rect x="322.1881599999999" y="344.32000000000005" width="112.80000000000001" height="32" rx="16" fill="#ffffff" stroke="#a5a5a0" stroke-width="1"/><circle cx="337.1881599999999" cy="360.32000000000005" r="4" fill="#55554f" stroke="none" stroke-width="1"/><text x="348.1881599999999" y="365.00000000000006" font-family="Inter, 'Segoe UI', Arial, sans-serif" font-size="13" font-weight="600" fill="#262624" text-anchor="start">Modo noite</text><rect x="638.4916" y="344.09999999999997" width="98.24000000000001" height="32" rx="16" fill="#ffffff" stroke="#a5a5a0" stroke-width="1"/><circle cx="653.4916" cy="360.09999999999997" r="4" fill="#55554f" stroke="none" stroke-width="1"/><text x="664.4916" y="364.78" font-family="Inter, 'Segoe UI', Arial, sans-serif" font-size="13" font-weight="600" fill="#262624" text-anchor="start">Projetos</text><rect x="427.1848" y="400.20000000000005" width="105.52000000000001" height="32" rx="16" fill="#ffffff" stroke="#a5a5a0" stroke-width="1"/><circle cx="442.1848" cy="416.20000000000005" r="4" fill="#55554f" stroke="none" stroke-width="1"/><text x="453.1848" y="420.88000000000005" font-family="Inter, 'Segoe UI', Arial, sans-serif" font-size="13" font-weight="600" fill="#262624" text-anchor="start">Sobre mim</text><rect x="876.4712" y="486" width="90.96000000000001" height="32" rx="16" fill="#ffffff" stroke="#a5a5a0" stroke-width="1"/><circle cx="891.4712" cy="502" r="4" fill="#55554f" stroke="none" stroke-width="1"/><text x="902.4712" y="506.68" font-family="Inter, 'Segoe UI', Arial, sans-serif" font-size="13" font-weight="600" fill="#262624" text-anchor="start">Contato</text><rect x="16" y="14" width="176" height="44" rx="22" fill="#ffffff" stroke="#a5a5a0" stroke-width="1"/><circle cx="38" cy="36" r="16" fill="#55554f" stroke="none" stroke-width="1"/><text x="38" y="40" font-family="Inter, 'Segoe UI', Arial, sans-serif" font-size="10" font-weight="700" fill="#ffffff" text-anchor="middle">&lt;/&gt;</text><text x="62" y="41" font-family="Inter, 'Segoe UI', Arial, sans-serif" font-size="15" font-weight="700" fill="#262624" text-anchor="start">Seu Nome</text><rect x="512.88" y="14" width="414.24" height="44" rx="22" fill="#ffffff" stroke="#a5a5a0" stroke-width="1"/><text x="566.16" y="41" font-family="Inter, 'Segoe UI', Arial, sans-serif" font-size="14" font-weight="600" fill="#76766f" text-anchor="middle">Sobre mim</text><text x="664.8000000000001" y="41" font-family="Inter, 'Segoe UI', Arial, sans-serif" font-size="14" font-weight="600" fill="#76766f" text-anchor="middle">Projetos</text><text x="775.2" y="41" font-family="Inter, 'Segoe UI', Arial, sans-serif" font-size="14" font-weight="600" fill="#76766f" text-anchor="middle">Experiências</text><text x="881.6800000000001" y="41" font-family="Inter, 'Segoe UI', Arial, sans-serif" font-size="14" font-weight="600" fill="#76766f" text-anchor="middle">Contato</text><rect x="1303.2" y="16" width="120.80000000000001" height="40" rx="20" fill="#ffffff" stroke="#a5a5a0" stroke-width="1"/><line x1="1317.2" y1="30" x2="1330.2" y2="30" stroke="#262624" stroke-width="1.6"/><line x1="1317.2" y1="36" x2="1330.2" y2="36" stroke="#262624" stroke-width="1.6"/><line x1="1317.2" y1="42" x2="1330.2" y2="42" stroke="#262624" stroke-width="1.6"/><text x="1339.2" y="41" font-family="Inter, 'Segoe UI', Arial, sans-serif" font-size="13" font-weight="600" fill="#262624" text-anchor="start">Ver sem 3D</text><circle cx="1275.2" cy="36" r="20" fill="#ffffff" stroke="#a5a5a0" stroke-width="1"/><path d="M1281.2 29a8 8 0 1 0 8 10a6 6 0 0 1 -8 -10z" fill="none" stroke="#262624" stroke-width="1.6"/><circle cx="1227.2" cy="36" r="20" fill="#ffffff" stroke="#a5a5a0" stroke-width="1"/><text x="1227.2" y="40.5" font-family="Inter, 'Segoe UI', Arial, sans-serif" font-size="12" font-weight="600" fill="#262624" text-anchor="middle">EN</text><rect x="16" y="848" width="437.92" height="34" rx="17" fill="#ffffff" stroke="#a5a5a0" stroke-width="1"/><text x="30" y="869.32" font-family="Inter, 'Segoe UI', Arial, sans-serif" font-size="12" font-weight="500" fill="#76766f" text-anchor="start">Arraste para girar · role para aproximar · clique nos objetos</text>
</g>
<rect x="0" y="0" width="1440" height="900" rx="12" fill="none" stroke="#55554f" stroke-width="1.5"/>
<circle cx="494.88" cy="36" r="13" fill="#d9480f" stroke="none" stroke-width="1"/><text x="494.88" y="40.5" font-family="Inter, 'Segoe UI', Arial, sans-serif" font-size="13" font-weight="700" fill="#ffffff" text-anchor="middle">1</text><circle cx="1189.2" cy="36" r="13" fill="#d9480f" stroke="none" stroke-width="1"/><text x="1189.2" y="40.5" font-family="Inter, 'Segoe UI', Arial, sans-serif" font-size="13" font-weight="700" fill="#ffffff" text-anchor="middle">2</text><circle cx="985.9512" cy="480" r="13" fill="#d9480f" stroke="none" stroke-width="1"/><text x="985.9512" y="484.5" font-family="Inter, 'Segoe UI', Arial, sans-serif" font-size="13" font-weight="700" fill="#ffffff" text-anchor="middle">3</text><circle cx="454.58815999999996" cy="340.32000000000005" r="13" fill="#d9480f" stroke="none" stroke-width="1"/><text x="454.58815999999996" y="344.82000000000005" font-family="Inter, 'Segoe UI', Arial, sans-serif" font-size="13" font-weight="700" fill="#ffffff" text-anchor="middle">4</text><circle cx="471.92" cy="865" r="13" fill="#d9480f" stroke="none" stroke-width="1"/><text x="471.92" y="869.5" font-family="Inter, 'Segoe UI', Arial, sans-serif" font-size="13" font-weight="700" fill="#ffffff" text-anchor="middle">5</text>
</g>
<circle cx="1533" cy="86" r="13" fill="#d9480f" stroke="none" stroke-width="1"/><text x="1533" y="90.5" font-family="Inter, 'Segoe UI', Arial, sans-serif" font-size="13" font-weight="700" fill="#ffffff" text-anchor="middle">1</text><text x="1556" y="91" font-family="Inter, 'Segoe UI', Arial, sans-serif" font-size="14" font-weight="400" fill="#262624" text-anchor="start">Menu fixo no topo. Cada item leva a</text><text x="1556" y="111" font-family="Inter, 'Segoe UI', Arial, sans-serif" font-size="14" font-weight="400" fill="#262624" text-anchor="start">câmera até o objeto da seção.</text><circle cx="1533" cy="154" r="13" fill="#d9480f" stroke="none" stroke-width="1"/><text x="1533" y="158.5" font-family="Inter, 'Segoe UI', Arial, sans-serif" font-size="13" font-weight="700" fill="#ffffff" text-anchor="middle">2</text><text x="1556" y="159" font-family="Inter, 'Segoe UI', Arial, sans-serif" font-size="14" font-weight="400" fill="#262624" text-anchor="start">Ferramentas: idioma (PT/EN), dia/noite e</text><text x="1556" y="179" font-family="Inter, 'Segoe UI', Arial, sans-serif" font-size="14" font-weight="400" fill="#262624" text-anchor="start">"Ver sem 3D".</text><circle cx="1533" cy="222" r="13" fill="#d9480f" stroke="none" stroke-width="1"/><text x="1533" y="226.5" font-family="Inter, 'Segoe UI', Arial, sans-serif" font-size="13" font-weight="700" fill="#ffffff" text-anchor="middle">3</text><text x="1556" y="227" font-family="Inter, 'Segoe UI', Arial, sans-serif" font-size="14" font-weight="400" fill="#262624" text-anchor="start">Objetos clicáveis com etiqueta: o</text><text x="1556" y="247" font-family="Inter, 'Segoe UI', Arial, sans-serif" font-size="14" font-weight="400" fill="#262624" text-anchor="start">porta-retrato do nicho abre Sobre mim, o</text><text x="1556" y="267" font-family="Inter, 'Segoe UI', Arial, sans-serif" font-size="14" font-weight="400" fill="#262624" text-anchor="start">monitor abre Projetos, a TV abre</text><text x="1556" y="287" font-family="Inter, 'Segoe UI', Arial, sans-serif" font-size="14" font-weight="400" fill="#262624" text-anchor="start">Experiências e o celular em cima da cama</text><text x="1556" y="307" font-family="Inter, 'Segoe UI', Arial, sans-serif" font-size="14" font-weight="400" fill="#262624" text-anchor="start">abre Contato.</text><circle cx="1533" cy="350" r="13" fill="#d9480f" stroke="none" stroke-width="1"/><text x="1533" y="354.5" font-family="Inter, 'Segoe UI', Arial, sans-serif" font-size="13" font-weight="700" fill="#ffffff" text-anchor="middle">4</text><text x="1556" y="355" font-family="Inter, 'Segoe UI', Arial, sans-serif" font-size="14" font-weight="400" fill="#262624" text-anchor="start">Atalho no próprio quarto: a luminária</text><text x="1556" y="375" font-family="Inter, 'Segoe UI', Arial, sans-serif" font-size="14" font-weight="400" fill="#262624" text-anchor="start">"&amp;" do nicho troca entre dia e noite.</text><circle cx="1533" cy="418" r="13" fill="#d9480f" stroke="none" stroke-width="1"/><text x="1533" y="422.5" font-family="Inter, 'Segoe UI', Arial, sans-serif" font-size="13" font-weight="700" fill="#ffffff" text-anchor="middle">5</text><text x="1556" y="423" font-family="Inter, 'Segoe UI', Arial, sans-serif" font-size="14" font-weight="400" fill="#262624" text-anchor="start">Dica de uso no canto: arrastar para</text><text x="1556" y="443" font-family="Inter, 'Segoe UI', Arial, sans-serif" font-size="14" font-weight="400" fill="#262624" text-anchor="start">girar e rolar para aproximar.</text>
</svg>
